<?xml version="1.0" encoding="utf-8"?>
<!-- Generator: Adobe Illustrator 23.0.1, SVG Export Plug-In . SVG Version: 6.00 Build 0)  -->
<svg version="1.1" id="Layer_1" xmlns="http://www.w3.org/2000/svg" xmlns:xlink="http://www.w3.org/1999/xlink" x="0px" y="0px"
	 viewBox="0 0 1000 1000" style="enable-background:new 0 0 1000 1000;" xml:space="preserve">
<style type="text/css">
	.st0{fill:#9D5226;}
	.st1{fill:#F68633;}
	.st2{fill:#6B3C19;}
	.st3{fill:#FCBF91;}
</style>
<g>
	<g transform="matrix(.199375 0 0 .199375 .71781 18.225361)">
		<path class="st0" d="M636.3,2441.2l-335.5-667.7l-85.1,42.1v1201.5l85.1,42.1L636.3,2441.2z M1246.9,2062.8l-131.4,20.7
			l-556.1-93.4L685,1813.2L1246.9,2062.8z M1246.9,2766l-124.8-19l-659.4,108.2l138,190.1L1246.9,2766z"/>
		<path class="st1" d="M300.8,1773.6l198.3,45.4v1194l-198.3,46.3V1773.6z"/>
		<path class="st0" d="M395,3106.4V1726.5l104.1-52.1l195.8,825.5l-195.8,658.6L395,3106.4z M1114.7,2083.4v661.9l132.2,20.7
			l120.6-336.3l-120.6-366.9L1114.7,2083.4z"/>
		<g>
			<path class="st1" d="M499.1,1674.4l202.4,57.8v1369.2l-202.4,57V1674.4z"/>
			<path class="st1" d="M499.1,3158.4l885.8-250.4v-167.7l-885.8,164.4V3158.4z M499.1,1674.4l887.5,252v162.8l-887.5-168.6V1674.4z
				"/>
			<path class="st1" d="M1389,2908.1l-142.1,38.8V1886.8l142.1,38.8V2908.1z"/>
		</g>
		<path class="st2" d="M1289.9,2295.8l385.1-310.7l130.6,301.6l-380.9,18.2L1289.9,2295.8z"/>
		<path class="st0" d="M1674.9,1985.1l-385.1,62.8v247.9l385.1-22.3L1674.9,1985.1z"/>
		<path class="st2" d="M1516.3,2257.8l-404.9,25.6L927.1,2271l390.8-393.3L1516.3,2257.8z"/>
		<g>
			<path class="st0" d="M1318,1877.7l-390.8,90.9V2271l390.8-33.1V1877.7z M1674.9,2852.7l-385.1-62v-247.9l515.6,8.3L1674.9,2852.7
				z"/>
			<path class="st0" d="M1318,2960.1l-390.8-90.9v-302.4l589.2,13.2L1318,2960.1z"/>
		</g>
		<path class="st3" d="M1516.3,2580l-404.9-25.6l-184.3,12.4l390.8,33.1L1516.3,2580z M1289.9,2542.8l385.1,21.5l130.6-13.2
			l-380.9-17.4L1289.9,2542.8z"/>
		<path class="st1" d="M1805.5,2023.9l-130.6-38.8v288.4l130.6,13.2V2023.9z M1318,1877.7l198.3,59.5v320.6l-198.3-19.8V1877.7z
			 M1805.5,2813.9l-130.6,38.8v-288.4l130.6-13.2V2813.9z M1318,2960.1l198.3-59.5V2580l-198.3,19.8V2960.1z"/>
	</g>
	<path class="st1" d="M437.2,467.8l24,64.5h-14.6l-4.7-14.6h-24.2l-5,14.4h-14.2l24.2-64.5L437.2,467.8z M437.8,507.3l-8.2-23.6
		h-0.2l-8.4,23.6H437.8z M477.9,485.6v6.3h0.2c1.7-2.5,3.8-4.2,6.1-5.6c2.3-1.3,5-2.1,8.2-2.1c2.8,0,5.6,0.6,8.2,1.7
		c2.5,1,4.4,3.1,5.6,6.1c1.5-2.1,3.3-3.8,5.6-5.4c2.3-1.5,5.2-2.3,8.4-2.3c2.5,0,4.8,0.2,6.9,0.8c2,0.6,3.8,1.6,5.4,2.9
		c1.6,1.4,2.8,3.2,3.6,5.2c0.8,2.1,1.3,4.8,1.3,7.7v31.4h-12.7v-26.6l-0.2-4.4c-0.2-1.5-0.4-2.5-1-3.6c-0.6-1-1.3-1.9-2.3-2.5
		s-2.5-0.8-4.4-0.8s-3.3,0.4-4.4,1c-1.1,0.7-2,1.6-2.7,2.7c-0.7,1.2-1.1,2.4-1.3,3.8l-0.4,4.4v25.9h-12.8v-30.3
		c0-1.3-0.4-2.5-0.8-3.8c-0.4-1.2-1.3-2.1-2.3-2.7c-1-0.6-2.5-1-4.6-1c-0.6,0-1.5,0.2-2.3,0.4c-1,0.2-1.9,0.8-2.9,1.5
		c-0.8,0.8-1.7,1.9-2.3,3.3c-0.7,1.8-1.1,3.7-1,5.6v27.4H466V486h11.9L477.9,485.6z M549,492.5c1.3-2.1,2.9-3.6,5-4.8
		c2.1-1.3,4.5-2.1,6.9-2.5c2.6-0.5,5.1-0.8,7.7-0.8c2.3,0,4.8,0.2,7.1,0.4c2.5,0.4,4.6,1,6.6,1.9c2.1,1,3.6,2.3,4.8,4
		c1.3,1.7,1.9,4,1.9,6.9v24.2c0,2.1,0.2,4.2,0.4,6.1c0.2,1.9,0.6,3.3,1.3,4.4h-13c-0.2-0.8-0.4-1.5-0.6-2.3
		c-0.2-0.8-0.2-1.5-0.4-2.3c-2.1,2.1-4.4,3.6-7.3,4.4c-2.8,0.8-5.7,1.3-8.6,1.3c-2.3,0-4.4-0.2-6.3-0.8c-1.8-0.6-3.5-1.4-5-2.5
		c-1.5-1-2.5-2.5-3.3-4.4c-0.8-1.7-1.3-3.8-1.3-6.3c0-2.7,0.4-4.8,1.5-6.5c1-1.7,2.1-3.1,3.6-4.2c1.5-1.1,3.2-1.9,5-2.3l5.6-1.3
		c1.9-0.2,3.8-0.6,5.6-0.6c1.7-0.1,3.4-0.4,5-0.8c1.5-0.4,2.5-0.8,3.3-1.7c0.8-0.6,1.3-1.7,1.3-2.9c0-1.5-0.2-2.5-0.6-3.3
		c-0.4-0.8-1.1-1.5-1.9-1.9c-0.8-0.4-1.7-0.8-2.7-0.8c-1-0.2-2.1-0.2-3.1-0.2c-2.5,0-4.6,0.6-5.9,1.7c-1.5,1-2.3,2.9-2.5,5.4h-12.7
		C546.9,496.9,547.5,494.4,549,492.5L549,492.5z M574.3,510.5l-2.7,0.6c-0.8,0.2-1.9,0.4-2.9,0.4c-1,0.2-2.1,0.2-3.1,0.4l-2.9,0.6
		c-0.8,0.2-1.7,0.6-2.5,1.3c-0.7,0.5-1.2,1.2-1.7,1.9c-0.4,0.8-0.6,1.7-0.6,2.9c0,1,0.2,2.1,0.6,2.9c0.4,0.8,1,1.5,1.7,1.9
		c0.8,0.5,1.6,0.9,2.5,1c1,0.2,1.9,0.2,2.9,0.2c2.5,0,4.4-0.4,5.9-1.3s2.5-1.9,3.1-2.9c0.6-1.1,1-2.3,1.3-3.6
		c0.2-1.3,0.2-2.1,0.2-2.9v-4.8C575.7,509.8,575.1,510.2,574.3,510.5L574.3,510.5z M620.3,495.2h-22.6v-9.6H637v9.6l-24.2,27.4h25.9
		v9.6H596v-9.6L620.3,495.2z M646.2,498.7c1-3.1,2.7-5.6,4.8-7.7c2.2-2.1,4.7-3.8,7.5-5c2.9-1.3,6.3-1.7,9.9-1.7
		c3.4,0,6.8,0.6,10,1.7c2.8,1.2,5.4,2.9,7.5,5c2.1,2.1,3.8,4.8,4.8,7.7c1.1,3.3,1.7,6.8,1.7,10.2c0,3.4-0.5,6.8-1.7,10
		c-1,2.9-2.7,5.6-4.8,7.7c-2.2,2.1-4.7,3.8-7.5,5c-3.2,1.1-6.6,1.7-10,1.7c-3.3,0-6.7-0.5-9.8-1.7c-2.9-1-5.4-2.7-7.4-5
		c-2.1-2.1-3.8-4.8-4.8-7.7c-1-2.9-1.7-6.5-1.7-10c-0.2-3.5,0.4-7,1.7-10.2H646.2z M657.8,514.4c0.4,1.7,1,3.3,1.9,4.8
		c0.8,1.5,2.1,2.5,3.6,3.3c1.5,0.8,3.3,1.3,5.4,1.3c2.1,0,4-0.4,5.4-1.3c1.5-0.8,2.7-1.9,3.6-3.3c0.8-1.5,1.5-2.9,1.9-4.8
		c0.4-1.7,0.6-3.6,0.6-5.4c0-1.8-0.2-3.7-0.6-5.4c-0.4-1.9-1-3.3-1.9-4.8c-0.9-1.4-2.1-2.6-3.6-3.3c-1.5-0.8-3.3-1.3-5.4-1.3
		c-2.1,0-4,0.4-5.4,1.3c-1.5,0.8-2.5,2.1-3.6,3.3c-0.8,1.5-1.5,2.9-1.9,4.8c-0.4,1.9-0.6,3.6-0.6,5.4L657.8,514.4z M713.2,485.5v6.5
		h0.2c1.7-2.7,3.8-4.6,6.3-5.9c2.5-1.2,5.2-1.9,7.9-1.9c3.3,0,6.3,0.4,8.4,1.5c2.1,0.8,3.9,2.2,5.2,4c1.3,1.7,2.1,3.8,2.7,6.1
		c0.5,2.6,0.8,5.3,0.8,7.9v28.4h-12.9v-26.2c0-3.8-0.6-6.6-1.9-8.6s-3.3-2.9-6.5-2.9c-3.6,0-6.1,1-7.4,3.1
		c-1.4,2.1-2.3,5.4-2.3,10.2v24.5H701v-46.6L713.2,485.5z M829.1,467.8v11.9H795v13.8h31.2v11.1H795v15.9h34.7v11.9h-48.9v-64.3
		h48.3V467.8z M880.7,485c-0.8-1.3-1.9-2.5-3.1-3.6c-1.3-1.1-2.8-1.9-4.4-2.3c-1.6-0.6-3.3-0.9-5-0.8c-2.8-0.1-5.6,0.6-8.2,1.9
		c-2.3,1.3-4,2.9-5.4,5s-2.3,4.4-2.9,7.1c-0.6,2.7-1,5.4-1,8.2s0.4,5.4,1,7.9c0.6,2.5,1.7,4.8,2.9,6.9c1.5,2.1,3.1,3.8,5.4,5
		c2.5,1.3,5.3,2,8.2,1.9c4.4,0,7.7-1.3,10.2-4c2.5-2.7,4-6.1,4.4-10.5h13.8c-0.4,4-1.3,7.7-2.7,10.9c-1.5,3.3-3.6,6.1-5.9,8.4
		c-2.5,2.2-5.4,4-8.6,5.2c-3.5,1.3-7.2,1.9-10.9,1.9c-5,0-9.4-0.8-13.4-2.5c-4-1.7-7.3-4.2-10-7.1c-2.8-3.1-4.9-6.7-6.3-10.7
		c-1.5-4-2.1-8.4-2.1-13.2s0.6-9.2,2.1-13.4c1.4-4,3.5-7.7,6.3-10.9c2.7-3.1,6.1-5.4,10-7.3c4-1.7,8.4-2.7,13.4-2.7
		c3.6,0,6.9,0.4,10,1.5c3.1,1,6.1,2.5,8.6,4.4s4.6,4.4,6.3,7.3c1.7,3.1,2.8,6.4,3.1,9.9h-14.2C882.2,487.9,881.6,486.4,880.7,485
		L880.7,485z M917.1,516.3c0.8,1.4,1.8,2.6,3.1,3.6c1.3,0.8,2.7,1.7,4.6,2.1c1.8,0.4,3.6,0.6,5.4,0.6c1.3,0,2.7-0.2,4-0.4
		c1.4-0.2,2.7-0.6,4-1.3c1.2-0.6,2.3-1.5,3.1-2.5c0.8-1,1.3-2.3,1.3-4s-0.6-3.1-1.7-4.2c-1-1-2.5-1.9-4.4-2.7l-6.1-1.9l-6.9-1.9
		c-2.4-0.5-4.8-1.3-7.1-2.3c-2.2-0.8-4.2-1.9-6.1-3.3c-1.9-1.5-3.3-3.1-4.4-5.2c-1-2.1-1.7-4.6-1.7-7.4c0-3.3,0.6-6.3,2.1-8.6
		c1.5-2.5,3.3-4.4,5.6-6.1c2.3-1.7,4.9-2.9,7.7-3.6c2.9-0.8,5.9-1.3,8.6-1.3c3.2,0,6.5,0.4,9.6,1c3.1,0.8,5.9,1.9,8.4,3.6
		c2.5,1.7,4.4,3.8,5.6,6.5c1.5,2.7,2.1,5.9,2.1,9.6h-13.8c-0.2-1.9-0.6-3.6-1.3-4.8c-0.6-1.3-1.7-2.3-2.7-2.9
		c-1.1-0.6-2.5-1.3-4-1.5c-1.5-0.2-3.1-0.4-4.8-0.4c-1,0-2.3,0.2-3.3,0.4c-1,0.2-2.1,0.6-3.1,1.3c-1,0.6-1.7,1.3-2.3,2.3
		c-0.6,0.8-0.8,2.1-0.8,3.3c0,1.3,0.2,2.3,0.6,3.1s1.5,1.5,2.9,2.1s3.3,1.3,5.9,1.9l9.9,2.5c1.7,0.3,3.4,0.7,5,1.3
		c2.2,0.7,4.3,1.7,6.3,2.9c2.1,1.5,4,3.1,5.4,5.6c1.5,2.3,2.3,5.2,2.3,9c0,2.8-0.6,5.6-1.7,8.2c-1,2.5-2.9,4.8-5,6.5
		c-2.5,2-5.3,3.5-8.4,4.4c-3.3,1-7.1,1.5-11.6,1.5c-3.5,0-6.9-0.4-10.2-1.3c-3.3-0.8-6.3-2.3-8.8-4.2c-2.5-1.9-4.6-4.2-6.1-7.1
		c-1.6-3.2-2.3-6.7-2.1-10.2h13.8C916.1,513,916.3,514.9,917.1,516.3L917.1,516.3z"/>
</g>
</svg>
