<?xml version="1.0" encoding="utf-8"?>
<!-- Generator: Adobe Illustrator 26.1.0, SVG Export Plug-In . SVG Version: 6.00 Build 0)  -->
<svg version="1.1" xmlns="http://www.w3.org/2000/svg" xmlns:xlink="http://www.w3.org/1999/xlink" x="0px" y="0px"
	 viewBox="0 0 757.78 420.97" style="enable-background:new 0 0 757.78 420.97;" xml:space="preserve">
<style type="text/css">
	.st0{display:none;fill:#FF4300;stroke:#000000;stroke-miterlimit:10;}
	.st1{display:none;}
	.st2{display:inline;}
	.st3{display:inline;clip-path:url(#SVGID_00000130633384497696504820000015163584536158484158_);}
	.st4{opacity:0.32;fill:#FF4300;}
	.st5{fill:#F37E26;}
	.st6{fill:#F37E26;stroke:#F37E26;stroke-miterlimit:10;}
</style>
<g id="Layer_1">
	<path class="st0" d="M-1357.46-204.22"/>
	<g class="st1">
		<defs>
			<path id="SVGID_1_" d="M-2511.27-1306.17c-13.37-130.11-168.9-248.14-275.85-222.89c-170.65,40.29-231.16,448.54-123.58,518.61
				C-2812.99-946.82-2490.72-1106.22-2511.27-1306.17z"/>
		</defs>
		<clipPath id="SVGID_00000111191862853543307380000013695238111770766763_" class="st2">
			<use xlink:href="#SVGID_1_"  style="overflow:visible;"/>
		</clipPath>
		<g style="display:inline;clip-path:url(#SVGID_00000111191862853543307380000013695238111770766763_);">
			<rect x="-2966.71" y="-1595.2" class="st4" width="458.67" height="611.55"/>
		</g>
	</g>
	<text transform="matrix(1 0 0 1 2102.0007 -513.4235)" class="st1"><tspan x="0" y="0" class="st2" style="font-family:'Poppins-Bold'; font-size:116.0108px;">HH </tspan><tspan x="194.2" y="0" style="display:inline;fill:#F37E26; font-family:'Poppins-Bold'; font-size:116.0108px;">TECH HUB</tspan></text>
</g>
<g id="Layer_2">
	<g>
		<g>
			<path d="M71.99,338.71v81.44H52.15v-33.53H21.29v33.53H1.45v-81.44h19.84v31.9h30.86v-31.9H71.99z"/>
			<path d="M156.79,338.71v81.44h-19.84v-33.53h-30.86v33.53H86.26v-81.44h19.84v31.9h30.86v-31.9H156.79z"/>
			<path class="st5" d="M254.24,338.71v15.89h-21.58v65.55h-19.84v-65.55h-21.58v-15.89H254.24z"/>
			<path class="st5" d="M284.05,354.61v16.47h26.57v15.31h-26.57v17.87h30.05v15.89h-49.88v-81.44h49.88v15.89H284.05z"/>
			<path class="st5" d="M328.83,357.8c3.48-6.3,8.33-11.21,14.56-14.73c6.22-3.52,13.28-5.28,21.17-5.28
				c9.67,0,17.94,2.55,24.83,7.66c6.88,5.1,11.49,12.07,13.81,20.88h-21.81c-1.62-3.4-3.93-5.99-6.9-7.77
				c-2.98-1.78-6.36-2.67-10.15-2.67c-6.11,0-11.06,2.13-14.85,6.38c-3.79,4.25-5.68,9.94-5.68,17.05c0,7.12,1.89,12.8,5.68,17.05
				c3.79,4.25,8.74,6.38,14.85,6.38c3.79,0,7.17-0.89,10.15-2.67c2.98-1.78,5.28-4.37,6.9-7.77h21.81
				c-2.32,8.82-6.92,15.76-13.81,20.82c-6.88,5.07-15.16,7.6-24.83,7.6c-7.89,0-14.95-1.76-21.17-5.28
				c-6.23-3.52-11.08-8.41-14.56-14.68s-5.22-13.42-5.22-21.46C323.61,371.28,325.35,364.1,328.83,357.8z"/>
			<path class="st5" d="M485.91,338.71v81.44h-19.84v-33.53h-30.86v33.53h-19.84v-81.44h19.84v31.9h30.86v-31.9H485.91z"/>
			<path class="st5" d="M595.3,338.71v81.44h-19.84v-33.53h-30.86v33.53h-19.84v-81.44h19.84v31.9h30.86v-31.9H595.3z"/>
			<path class="st5" d="M629.06,338.71v48.72c0,4.87,1.2,8.62,3.6,11.25c2.4,2.63,5.92,3.94,10.56,3.94s8.2-1.31,10.67-3.94
				c2.47-2.63,3.71-6.38,3.71-11.25v-48.72h19.84v48.61c0,7.27-1.55,13.42-4.64,18.45c-3.09,5.03-7.25,8.82-12.47,11.37
				c-5.22,2.55-11.04,3.83-17.46,3.83c-6.42,0-12.16-1.26-17.23-3.77c-5.07-2.51-9.07-6.3-12.01-11.37
				c-2.94-5.06-4.41-11.23-4.41-18.5v-48.61H629.06z"/>
			<path class="st5" d="M752.03,385.41c2.86,3.67,4.29,7.87,4.29,12.59c0,6.81-2.38,12.2-7.13,16.18
				c-4.76,3.98-11.39,5.97-19.9,5.97h-37.94v-81.44h36.66c8.27,0,14.75,1.9,19.43,5.68c4.68,3.79,7.02,8.93,7.02,15.43
				c0,4.8-1.26,8.78-3.77,11.95c-2.51,3.17-5.86,5.38-10.04,6.61C745.38,379.4,749.17,381.74,752.03,385.41z M711.19,371.66h12.99
				c3.25,0,5.74-0.71,7.48-2.15c1.74-1.43,2.61-3.54,2.61-6.32s-0.87-4.91-2.61-6.38c-1.74-1.47-4.23-2.2-7.48-2.2h-12.99V371.66z
				 M733.53,401.88c1.82-1.51,2.73-3.69,2.73-6.55c0-2.86-0.95-5.1-2.84-6.73c-1.9-1.62-4.51-2.44-7.83-2.44h-14.39v17.98h14.62
				C729.14,404.14,731.71,403.39,733.53,401.88z"/>
		</g>
		<g>
			<polygon points="371.47,0 289.2,100.61 267.49,127.17 245.77,153.73 202.34,206.85 130.02,295.3 90.79,295.3 91.5,256.38 
				132,206.85 175.43,153.73 197.15,127.17 218.86,100.61 301.13,0 			"/>
			<polygon points="632.87,0 550.6,100.61 528.89,127.17 507.17,153.73 463.74,206.85 391.42,295.3 322.28,295.3 394.6,206.85 
				438.03,153.73 459.75,127.17 481.46,100.61 563.72,0 			"/>
			<polygon class="st6" points="479.17,0 396.91,100.61 322.84,100.61 405.1,0 			"/>
			<polygon points="427.28,127.17 405.56,153.73 362.13,206.85 310.04,206.85 237.72,295.3 163.66,295.3 235.98,206.85 
				279.41,153.73 301.12,127.17 			"/>
			<polygon class="st6" points="664.08,153.73 620.65,206.85 548.33,295.3 477.74,295.3 550.06,206.85 497.65,206.85 541.08,153.73 
							"/>
		</g>
	</g>
</g>
<g id="Layer_3">
</g>
</svg>
