<svg xmlns="http://www.w3.org/2000/svg" xmlns:xlink="http://www.w3.org/1999/xlink" version="1.1" width="3840" height="2160" style="shape-rendering:geometricPrecision; text-rendering:geometricPrecision; image-rendering:optimizeQuality; fill-rule:evenodd; clip-rule:evenodd">
<g><path style="opacity:0.995" fill="#fe612c" d="M 1276.5,272.5 C 1508.5,272.333 1740.5,272.5 1972.5,273C 2065.5,272.328 2153.83,293.328 2237.5,336C 2352.37,402.309 2423.54,500.809 2451,631.5C 2477.31,776.245 2445.31,906.245 2355,1021.5C 2283.04,1106.38 2193.71,1159.71 2087,1181.5C 2043.7,1190.68 1999.87,1195.35 1955.5,1195.5C 1828.36,1194.7 1704.86,1175.04 1585,1136.5C 1505.84,1110.79 1429,1079.62 1354.5,1043C 1305.36,1017.27 1258.36,988.272 1213.5,956C 1199.75,945.584 1186.58,934.417 1174,922.5C 1170.19,917.718 1167.03,912.551 1164.5,907C 1164.54,895.293 1170.21,887.96 1181.5,885C 1268.83,884.667 1356.17,884.333 1443.5,884C 1460.86,881.114 1466.03,871.614 1459,855.5C 1452.65,849.492 1445.49,844.659 1437.5,841C 1316.04,782.296 1199.38,715.962 1087.5,642C 1050.03,615.868 1013.7,588.201 978.5,559C 962.754,545.257 947.587,530.757 933,515.5C 925.597,506.248 923.597,495.914 927,484.5C 932.298,476.017 939.964,471.684 950,471.5C 1132.46,471.956 1314.96,472.289 1497.5,472.5C 1515.71,471.043 1522.21,461.71 1517,444.5C 1514.83,441.667 1512.33,439.167 1509.5,437C 1439.99,409.581 1372.66,377.248 1307.5,340C 1292.49,330.494 1277.82,320.494 1263.5,310C 1252.89,298.927 1252.89,287.927 1263.5,277C 1267.71,274.763 1272.05,273.263 1276.5,272.5 Z M 1993.5,419.5 C 1999.91,420.682 2006.41,420.682 2013,419.5C 2101.55,422.21 2177.21,457.21 2240,524.5C 2309.95,609.234 2331.62,705.234 2305,812.5C 2271.67,922.5 2200.17,994.667 2090.5,1029C 1981.61,1056.56 1883.94,1034.89 1797.5,964C 1708.71,881.968 1675.21,781.135 1697,661.5C 1718.49,574.955 1767.33,508.788 1843.5,463C 1885.08,439.099 1927.58,425.599 1971,422.5C 1978.36,421.422 1985.86,420.422 1993.5,419.5 Z"/></g>
<g><path style="opacity:0.989" fill="#fe612c" d="M 2000.5,491.5 C 2084.92,492.294 2153.42,526.627 2206,594.5C 2237.24,638.549 2251.24,687.549 2248,741.5C 2246.55,746.895 2243.72,751.395 2239.5,755C 2233.56,757.858 2227.39,760.025 2221,761.5C 2213.98,761.115 2206.81,761.115 2199.5,761.5C 2190.79,761.543 2182.13,761.043 2173.5,760C 2161.95,758.654 2154.45,752.488 2151,741.5C 2148.44,727.965 2146.1,714.631 2144,701.5C 2129.46,642.95 2092.96,605.116 2034.5,588C 2020.53,585.448 2006.53,583.115 1992.5,581C 1981.06,575.96 1975.22,567.126 1975,554.5C 1974.82,544.59 1974.32,534.756 1973.5,525C 1974.66,517.232 1976.83,509.732 1980,502.5C 1985.25,495.793 1992.08,492.127 2000.5,491.5 Z"/></g>
<g><path style="opacity:0.989" fill="#000000" d="M 290.5,1442.5 C 301.942,1442.58 313.109,1442.58 324,1442.5C 391.611,1443.66 456.445,1458.33 518.5,1486.5C 519.5,1518.16 519.833,1549.83 519.5,1581.5C 493.293,1569.95 467.127,1560.29 441,1552.5C 440.667,1552.83 440.333,1553.17 440,1553.5C 435.164,1551.44 430.164,1549.78 425,1548.5C 424.228,1548.64 423.561,1548.98 423,1549.5C 420.272,1547.23 417.272,1546.57 414,1547.5C 413.5,1547 413,1546.5 412.5,1546C 361.305,1535.57 309.472,1533.07 257,1538.5C 239.94,1540.41 224.44,1546.24 210.5,1556C 201.354,1567.32 200.187,1579.49 207,1592.5C 213.682,1600.59 222.182,1605.76 232.5,1608C 239.396,1609.87 246.396,1611.2 253.5,1612C 308.65,1617.58 362.484,1622.75 415,1627.5C 440.704,1631.51 465.204,1639.35 488.5,1651C 524.422,1671.99 542.422,1703.49 542.5,1745.5C 541.349,1790.98 521.683,1825.82 483.5,1850C 456.463,1865.75 429.296,1875.58 402,1879.5C 391.93,1881.61 381.764,1883.11 371.5,1884C 354.589,1885.2 338.755,1886.37 324,1887.5C 323.5,1887 323,1886.5 322.5,1886C 247.772,1885.26 177.772,1866.93 112.5,1831C 111.271,1829.47 109.771,1828.3 108,1827.5C 107.333,1794.83 107.333,1762.17 108,1729.5C 198.769,1784.59 296.603,1803.75 401.5,1787C 415.342,1784 427.176,1777.5 437,1767.5C 448.166,1745.3 442.666,1728.8 420.5,1718C 411,1715.21 401.333,1713.21 391.5,1712C 334.813,1708.15 277.813,1702.48 220.5,1695C 192.157,1690.18 165.824,1679.68 141.5,1663.5C 119.85,1645.28 107.35,1621.95 104,1593.5C 99.166,1541 119.333,1501.5 164.5,1475C 188.555,1461.65 214.222,1452.65 241.5,1448C 257.901,1445.41 274.234,1443.57 290.5,1442.5 Z"/></g>
<g><path style="opacity:0.988" fill="#000000" d="M 3041.5,1884.5 C 3039.9,1884.23 3038.57,1884.57 3037.5,1885.5C 3031.68,1885.8 3026.02,1885.8 3020.5,1885.5C 3015.68,1887.2 3011.18,1887.87 3007,1887.5C 3006.25,1886.87 3005.42,1886.37 3004.5,1886C 2936.61,1885.02 2872.61,1870.02 2812.5,1841C 2804.82,1836.5 2797.16,1832 2789.5,1827.5C 2788.84,1811.21 2788.51,1794.88 2788.5,1778.5C 2788.34,1762.02 2788.84,1745.69 2790,1729.5C 2877.78,1782.72 2972.61,1802.56 3074.5,1789C 3091.82,1786.76 3106.65,1779.59 3119,1767.5C 3126.59,1754.21 3126.26,1741.21 3118,1728.5C 3110.64,1721.24 3101.81,1716.74 3091.5,1715C 3068.93,1711.41 3046.43,1709.25 3024,1708.5C 2989.37,1704.64 2955.37,1701.31 2922,1698.5C 2892.42,1694.57 2864.59,1686.07 2838.5,1673C 2798.54,1648.9 2780.54,1613.73 2784.5,1567.5C 2788.04,1536.25 2801.71,1510.42 2825.5,1490C 2858.25,1465.15 2895.25,1450.48 2936.5,1446C 3002.75,1438.54 3070.42,1444.21 3139.5,1463C 3160.42,1469.36 3180.75,1477.2 3200.5,1486.5C 3201.5,1518.16 3201.83,1549.83 3201.5,1581.5C 3175.67,1570.07 3149.51,1560.4 3123,1552.5C 3121.66,1553.21 3120.32,1552.88 3119,1551.5C 3112.26,1550.14 3105.26,1548.47 3098,1546.5C 3096.22,1547.48 3094.55,1547.15 3093,1545.5C 3091.59,1546.92 3090.42,1546.76 3089.5,1545C 3037.54,1534.62 2984.87,1532.95 2931.5,1540C 2917.59,1542.08 2904.93,1547.08 2893.5,1555C 2884.65,1563.89 2882.15,1574.39 2886,1586.5C 2889.96,1595.25 2896.46,1601.42 2905.5,1605C 2915.23,1608.48 2925.23,1610.81 2935.5,1612C 2990.37,1617.56 3044.2,1622.73 3097,1627.5C 3122.72,1631.52 3147.22,1639.35 3170.5,1651C 3206.43,1671.99 3224.43,1703.49 3224.5,1745.5C 3221.81,1800.47 3195.97,1838.47 3147,1859.5C 3130.61,1867.84 3114.28,1873.51 3098,1876.5C 3085.08,1879.31 3072.41,1881.97 3060,1884.5C 3053.93,1884.12 3047.76,1884.12 3041.5,1884.5 Z"/></g>
<g><path style="opacity:0.988" fill="#010000" d="M 607.5,1454.5 C 737.5,1454.5 867.5,1454.5 997.5,1454.5C 997.5,1483.5 997.5,1512.5 997.5,1541.5C 899.833,1541.5 802.167,1541.5 704.5,1541.5C 704.5,1566.83 704.5,1592.17 704.5,1617.5C 800.5,1617.5 896.5,1617.5 992.5,1617.5C 992.5,1646.5 992.5,1675.5 992.5,1704.5C 896.5,1704.5 800.5,1704.5 704.5,1704.5C 704.333,1732.17 704.5,1759.84 705,1787.5C 802.43,1786.5 899.93,1786.17 997.5,1786.5C 997.833,1815.51 997.5,1844.51 996.5,1873.5C 995.914,1873.71 995.414,1874.04 995,1874.5C 865.57,1873.5 736.07,1873.17 606.5,1873.5C 606.168,1733.76 606.502,1594.1 607.5,1454.5 Z"/></g>
<g><path style="opacity:0.989" fill="#000000" d="M 1080.5,1454.5 C 1140.84,1454.17 1201.17,1454.5 1261.5,1455.5C 1298.03,1569.92 1334.86,1684.25 1372,1798.5C 1372.82,1801.12 1373.32,1803.78 1373.5,1806.5C 1375.5,1806.5 1377.5,1806.5 1379.5,1806.5C 1416.05,1689.67 1453.22,1572.67 1491,1455.5C 1550.1,1454.5 1609.26,1454.17 1668.5,1454.5C 1668.5,1594.17 1668.5,1733.83 1668.5,1873.5C 1634.83,1873.5 1601.17,1873.5 1567.5,1873.5C 1567.17,1759.26 1567.5,1645.1 1568.5,1531C 1566.25,1530.14 1564.42,1530.64 1563,1532.5C 1524.92,1645.92 1487.75,1759.58 1451.5,1873.5C 1398.93,1873.83 1346.43,1873.5 1294,1872.5C 1257.08,1758.73 1220.08,1645.4 1183,1532.5C 1181.6,1530.81 1179.77,1530.14 1177.5,1530.5C 1177.67,1644.83 1177.5,1759.17 1177,1873.5C 1145.04,1873.51 1112.87,1873.51 1080.5,1873.5C 1080.5,1733.83 1080.5,1594.17 1080.5,1454.5 Z"/></g>
<g><path style="opacity:0.986" fill="#000000" d="M 1761.5,1454.5 C 1868.01,1454.51 1974.34,1454.51 2080.5,1454.5C 2165.42,1462.09 2209.75,1508.42 2213.5,1593.5C 2212.8,1649.44 2187.8,1690.27 2138.5,1716C 2126.17,1721.33 2113.51,1725.66 2100.5,1729C 2138,1773.83 2175.5,1818.67 2213,1863.5C 2213.5,1866.82 2213.67,1870.15 2213.5,1873.5C 2212.18,1873.33 2211.01,1873.66 2210,1874.5C 2172.57,1873.67 2135.07,1873.17 2097.5,1873C 2058.94,1826.41 2020.28,1779.41 1981.5,1732C 1942.17,1731.5 1902.83,1731.33 1863.5,1731.5C 1863.5,1778.83 1863.5,1826.17 1863.5,1873.5C 1829.17,1873.5 1794.83,1873.5 1760.5,1873.5C 1760.17,1733.76 1760.5,1594.1 1761.5,1454.5 Z M 1863.5,1542.5 C 1929.83,1542.33 1996.17,1542.5 2062.5,1543C 2103.39,1547.3 2120.22,1570.14 2113,1611.5C 2106.72,1628.78 2094.55,1639.28 2076.5,1643C 2071.49,1643.87 2066.49,1644.7 2061.5,1645.5C 1995.71,1645.29 1929.71,1645.29 1863.5,1645.5C 1863.5,1611.17 1863.5,1576.83 1863.5,1542.5 Z"/></g>
<g><path style="opacity:0.987" fill="#000000" d="M 2269.5,1454.5 C 2303.17,1454.5 2336.83,1454.5 2370.5,1454.5C 2370.33,1529.5 2370.5,1604.5 2371,1679.5C 2377.6,1754.27 2418.43,1792.27 2493.5,1793.5C 2567.58,1791.92 2608.08,1754.25 2615,1680.5C 2615.5,1605.17 2615.67,1529.83 2615.5,1454.5C 2649.5,1454.5 2683.5,1454.5 2717.5,1454.5C 2717.96,1534.18 2717.46,1613.85 2716,1693.5C 2703.61,1801.84 2644.61,1864.84 2539,1882.5C 2526.78,1884.68 2514.61,1885.68 2502.5,1885.5C 2500.16,1885.67 2497.99,1886.34 2496,1887.5C 2492.31,1886.69 2487.97,1886.03 2483,1885.5C 2464.72,1885.3 2446.55,1882.96 2428.5,1878.5C 2341.95,1857.4 2290.12,1802.07 2273,1712.5C 2271.23,1700.18 2269.73,1687.84 2268.5,1675.5C 2268.17,1601.94 2268.5,1528.27 2269.5,1454.5 Z"/></g>
<g><path style="opacity:0.992" fill="#000000" d="M 3284.5,1454.5 C 3318.83,1454.5 3353.17,1454.5 3387.5,1454.5C 3387.5,1507.5 3387.5,1560.5 3387.5,1613.5C 3471.83,1613.67 3556.17,1613.5 3640.5,1613C 3640.18,1560.75 3640.01,1508.25 3640,1455.5C 3671.76,1454.5 3703.59,1454.17 3735.5,1454.5C 3735.5,1594.17 3735.5,1733.83 3735.5,1873.5C 3703.35,1873.99 3671.35,1873.49 3639.5,1872C 3640.83,1818 3640.83,1764 3639.5,1710C 3555.6,1709.17 3471.76,1709.34 3388,1710.5C 3387.5,1764.83 3387.33,1819.17 3387.5,1873.5C 3353.17,1873.5 3318.83,1873.5 3284.5,1873.5C 3284.5,1733.83 3284.5,1594.17 3284.5,1454.5 Z"/></g>
<g><path style="opacity:0.086" fill="#4f1f0d" d="M 3041.5,1884.5 C 3040.47,1885.25 3039.3,1885.92 3038,1886.5C 3037.6,1886.27 3037.43,1885.94 3037.5,1885.5C 3038.57,1884.57 3039.9,1884.23 3041.5,1884.5 Z"/></g>
</svg>